<?xml version="1.0" encoding="utf-8"?>
<!-- Generator: Adobe Illustrator 22.0.1, SVG Export Plug-In . SVG Version: 6.00 Build 0)  -->
<svg version="1.1" id="data_xA0_Image_1_" xmlns="http://www.w3.org/2000/svg" xmlns:xlink="http://www.w3.org/1999/xlink" x="0px"
	 y="0px" viewBox="0 0 512 512" style="enable-background:new 0 0 512 512;" xml:space="preserve">
<rect style="fill:#EEF3F3;" width="512" height="512"/>
<g id="data">
	<g>
		<path style="fill-rule:evenodd;clip-rule:evenodd;fill:#73C4D8;" d="M338.2,345.6L338.2,345.6
			C338.2,345.6,338.2,345.6,338.2,345.6l-0.1-0.7c0-0.6-0.1-1.3-0.2-1.9c-3.8-29.3-22.9-53.8-49.1-65.1
			c15.2-10.4,25.1-27.8,25.1-47.6c0-31.8-25.8-57.7-57.7-57.7c-31.8,0-57.7,25.8-57.7,57.7c0,19.8,10,37.2,25.1,47.6
			c-25.9,11.2-45,35.3-49,64.2c-0.3,0.9-0.5,1.8-0.5,2.8l0.1,0.8c0,4.5,3.7,8.2,8.2,8.2s8.2-3.7,8.2-8.2l0-0.1h0.2
			c3.8-31.4,29.8-56,61.8-57.7c1.2,0.1,2.3,0.1,3.5,0.1c1.2,0,2.4,0,3.5-0.1c32,1.7,58,26.3,61.8,57.7h0.2l0,0.1
			c0,4.5,3.7,8.2,8.2,8.2S338.3,350.3,338.2,345.6L338.2,345.6z M256.3,271.6c-22.7,0-41.2-18.4-41.2-41.2
			c0-22.7,18.4-41.2,41.2-41.2c22.7,0,41.2,18.4,41.2,41.2C297.4,253.2,279,271.6,256.3,271.6z"/>
	</g>
</g>
</svg>
