<?xml version="1.0" encoding="iso-8859-1"?>
<!-- Generator: Adobe Illustrator 19.0.0, SVG Export Plug-In . SVG Version: 6.00 Build 0)  -->
<svg version="1.1" id="Layer_1" xmlns="http://www.w3.org/2000/svg" xmlns:xlink="http://www.w3.org/1999/xlink" x="0px" y="0px"
	 viewBox="0 0 375 375" style="enable-background:new 0 0 375 375;" xml:space="preserve">
	<g id="XMLID_143_">
		<polygon id="XMLID_3196_" style="fill:#4CD1B6;" points="84,85 174.5,21.5 205.498,52.498 162.5,83.5 	"/>
		<polygon id="XMLID_3194_" style="fill:#4CD1B6;" points="164,81.5 251,21.5 312.5,83 	"/>
		<path id="XMLID_3190_" style="fill:#F87F6E;" d="M331.75,353.5H43.25C24.887,353.5,10,338.613,10,320.25v-203.5
			C10,98.386,24.887,83.5,43.25,83.5h288.5c18.363,0,33.25,14.887,33.25,33.25v203.5C365,338.613,350.113,353.5,331.75,353.5z"/>
		<path id="XMLID_3186_" style="fill:#ECF0F1;" d="M269,268.5h96v-100h-96c-12.979,0-23.5,10.521-23.5,23.5v53
			C245.5,257.979,256.021,268.5,269,268.5z"/>
		<circle id="XMLID_3181_" style="fill:#F87F6E;" cx="305.25" cy="218.5" r="20"/>
		<g id="XMLID_1843_">
			<path id="XMLID_1857_" style="fill:#231F20;" d="M331.75,73.5h-14.607l-59.071-59.071c-3.413-3.413-8.774-3.9-12.749-1.161
				l-38.417,26.494l-25.334-25.334c-3.436-3.434-8.839-3.903-12.815-1.115L82.979,73.5H43.25C19.402,73.5,0,92.902,0,116.75v203.5
				c0,23.848,19.402,43.25,43.25,43.25h288.5c23.848,0,43.25-19.402,43.25-43.25v-203.5C375,92.902,355.598,73.5,331.75,73.5z
				M249.819,34.461L288.858,73.5h-95.39L249.819,34.461z M173.368,34.51l16.749,16.749l-31.794,22.009
				c-0.106,0.073-0.2,0.156-0.302,0.232H117.8L173.368,34.51z M331.75,343.5H43.25C30.43,343.5,20,333.07,20,320.25v-203.5
				c0-12.82,10.43-23.25,23.25-23.25h288.5c12.82,0,23.25,10.43,23.25,23.25v41.75h-86c-18.472,0-33.5,15.028-33.5,33.5v53
				c0,18.472,15.028,33.5,33.5,33.5h86v41.75C355,333.07,344.57,343.5,331.75,343.5z M355,258.5h-86c-7.444,0-13.5-6.056-13.5-13.5
				v-53c0-7.444,6.056-13.5,13.5-13.5h86V258.5z"/>
			<path id="XMLID_1866_" style="fill:#231F20;" d="M305.25,248.5c16.542,0,30-13.458,30-30s-13.458-30-30-30s-30,13.458-30,30
				S288.708,248.5,305.25,248.5z M305.25,208.5c5.514,0,10,4.486,10,10s-4.486,10-10,10s-10-4.486-10-10S299.736,208.5,305.25,208.5z
				"/>
			<path id="XMLID_1867_" style="fill:#231F20;" d="M64.5,139.5c-5.523,0-10,4.477-10,10v138c0,5.523,4.477,10,10,10s10-4.477,10-10
				v-138C74.5,143.977,70.023,139.5,64.5,139.5z"/>
		</g>
	</g>
</svg>
